P2
3 3
9
9 0 3
0 0 0
3 0 9
