P3
5 3
9
9 8 7  0 0 0  9 8 7  0 0 0  9 8 7
0 0 0  7 8 9  0 0 0  7 8 9  0 0 0
9 8 7  0 0 0  9 8 7  0 0 0  9 8 7
