P2
3 3
9
4 0 9
0 0 0
9 0 4

