P3
3 5
9
9 8 7  0 0 0  9 8 7
0 0 0  7 8 9  0 0 0
9 8 7  8 8 8  9 8 7
0 0 0  7 8 9  0 0 0
9 8 7  0 0 0  9 8 7
