P3
7 7
9
3 3 3  0 0 0  9 8 7  0 0 0  3 3 3  0 0 0  3 3 3 
0 0 0  0 0 0  0 0 0  0 0 0  0 0 0  0 0 0  0 0 0
9 8 7  0 0 0  7 8 9  0 0 0  9 8 7  0 0 0  3 3 3
0 0 0  0 0 0  0 0 0  8 8 8  0 0 0  0 0 0  0 0 0
3 3 3  0 0 0  9 8 7  0 0 0  7 8 9  0 0 0  9 8 7
0 0 0  0 0 0  0 0 0  0 0 0  0 0 0  0 0 0  0 0 0
3 3 3  0 0 0  3 3 3  0 0 0  9 8 7  0 0 0  3 3 3
