P2
3 3
9
7 0 4
0 0 0
9 0 7

