P3
7 7
9
6 8 7  0 0 0  5 7 6  0 0 0  4 7 6  0 0 0  3 6 5
0 0 0  0 0 0  0 0 0  0 0 0  0 0 0  0 0 0  0 0 0
7 8 7  0 0 0  6 8 7  0 0 0  5 7 6  0 0 0  4 7 6
0 0 0  0 0 0  0 0 0  7 7 7  0 0 0  0 0 0  0 0 0
8 9 8  0 0 0  7 8 7  0 0 0  6 8 7  0 0 0  5 7 6
0 0 0  0 0 0  0 0 0  0 0 0  0 0 0  0 0 0  0 0 0
9 9 9  0 0 0  8 9 8  0 0 0  7 8 7  0 0 0  6 8 7
