P2
3 3
9
4 0 7
0 0 0
7 0 9
